<?xml version="1.0" encoding="utf-8"?>
<!DOCTYPE svg PUBLIC "-//W3C//DTD SVG 1.0//EN" "http://www.w3.org/TR/2001/REC-SVG-20010904/DTD/svg10.dtd">
<svg version="1.0" xmlns="http://www.w3.org/2000/svg" width="200px" height="267px" viewBox="0 0 200 267" preserveAspectRatio="xMidYMid meet">
 <g fill="#002E5D">
  <path d="M86.1 265 c-35.1 -7.4 -64.3 -37.4 -77.9 -80 -11 -34.4 -11 -69.7 0 -104 17.6 -55.1 61.9 -88.4 105.6 -79.4 54.8 11.2 93.1 81.1 83.7 152.7 -5.1 38.6 -22 72 -46.5 92 -9.2 7.4 -23 14.8 -32.5 17.3 -7.2 1.9 -26.2 2.7 -32.4 1.4z m20.7 -12.3 c0.8 -1.6 2 -9.7 2.7 -18.2 1.2 -13.8 1.7 -16 4.8 -22.8 4.8 -10.3 10 -17.6 21.4 -30.2 17.9 -19.8 26.5 -29.9 29.4 -35 4.6 -7.9 7.9 -19.6 8.6 -30.4 0.7 -11.8 0.3 -11.6 -9 4.9 -29.7 52.9 -36.6 62.8 -56.4 80.3 -10.4 9.2 -19.1 14 -31.1 16.9 -12.5 3 -37.2 2.9 -37.2 -0.2 0 -1.2 3.6 -4.5 28.5 -26 17.5 -15.2 20 -17.1 21 -15.5 4 6.9 9.7 10.2 15.1 8.9 8.5 -2 12.8 -9.5 14.3 -24.9 1 -10 1 -10 10.4 -19 8.4 -8 30.1 -27.9 41.4 -37.9 4.2 -3.7 4.2 -3.7 5.4 -1.4 0.8 1.4 1.5 7.6 1.7 16.5 0.7 22.9 -4 52 -10.4 65 -2.1 4.4 -3.5 5.8 -8.7 8.7 -3.4 1.9 -8.7 4.4 -11.7 5.6 -3 1.1 -8.6 4.2 -12.4 6.8 -9 6.1 -12 11.5 -12.1 21.4 0 8 2.3 12.1 7.2 12.6 8.4 0.8 10.4 -16.3 2.2 -19 -1.1 -0.4 -0.7 -1.5 1.5 -4.7 4 -5.8 9 -9.9 15.4 -12.9 6.5 -3 12.6 -2.5 18.4 1.3 2.1 1.4 4.2 2.5 4.6 2.5 1.3 0 8.7 -15.4 11.6 -24.1 6.8 -20.3 9.3 -48.2 6.2 -68.1 -2 -12.7 -5.3 -25.1 -9.8 -37.3 -3.3 -9 -3.3 -9 -3.6 1 -0.3 10 -0.3 10 -7.3 14.3 -7.6 4.5 -12.3 5.3 -16.9 2.7 -1.4 -0.8 -3 -1.4 -3.6 -1.5 -0.6 0 -2.5 6.4 -4.3 14.6 -3.5 16 -4.4 18.5 -9 22.8 -2.6 2.5 -4.2 3 -9.2 3.4 -5.1 0.4 -6.5 0.1 -8.9 -1.7 -1.6 -1.1 -3.1 -2.1 -3.4 -2.1 -0.2 0 -0.6 8.2 -0.8 18.3 -0.3 16.2 -0.5 18.6 -2.4 21.7 -2.3 3.9 -5.6 6 -8.4 5.3 -1.1 -0.3 -3.1 -2.7 -4.5 -5.4 -2.2 -4.2 -2.7 -6.9 -3.3 -17.1 -0.7 -12 -0.7 -12 -9.8 -5 -11.3 8.7 -12.5 10.3 -15.9 20 -6.6 18.6 -8.1 20.7 -22.1 32.3 -9.8 8.1 -13.2 10.4 -14.1 9.6 -0.8 -0.9 -2.3 -29.3 -3 -58 -0.8 -36.8 0.6 -45.2 9 -52.3 1.9 -1.6 9.2 -6.9 16.3 -11.9 17.8 -12.5 23.9 -18.4 28.1 -27 2.7 -5.8 3.3 -8.1 3.3 -13.7 0 -8.4 -2.2 -14.3 -6.1 -16.3 -4.3 -2.3 -6.6 -1.8 -10.6 1.9 -3.6 3.3 -3.8 3.7 -4.1 10.8 -0.4 9.9 1.6 14.2 7.1 14.6 4.4 0.4 4.7 1.7 1.3 7 -7.7 12 -20.6 17.1 -31.2 12.3 -2.2 -1 -6.6 -4.5 -9.7 -7.7 -4.3 -4.5 -5.9 -5.6 -6.8 -4.7 -3.3 3.3 3.7 12.3 13 16.9 3.3 1.6 6 3.4 6 4.1 0.2 3.9 -16.9 9 -25.9 7.8 -4.6 -0.6 -4.6 -0.6 -6.3 6.2 -3.6 15.1 -4.2 21.1 -4.2 40.3 0 16.8 0.3 21 2.3 29.9 7.9 35.4 25.6 60.7 52.4 75 12 6.5 28 11.1 37.3 10.8 4.4 -0.2 5.1 -0.5 6.3 -3z m-61.7 -103.7 c10 -4.5 13.5 -4.8 19.8 -2 2.4 1.1 4.9 2 5.6 2 1 0 1.4 -4 1.7 -17.7 0.4 -22.6 -0.1 -21.7 20.8 -39.8 17.4 -15 17 -14.3 17 -27.1 0 -9.1 2.3 -15.5 7 -19.8 4.9 -4.4 8.1 -4.6 12.1 -0.7 2.4 2.4 2.9 3.8 2.9 7.8 0 9.9 -3.8 15.9 -14.7 23.6 -1.8 1.2 -3.5 2.8 -3.8 3.4 -1 2.8 6.9 24.3 9 24.3 1.6 0 8.1 -4.8 17.4 -12.7 6.9 -5.9 7.7 -6.9 10.6 -14.6 3.8 -10.1 7.4 -15.9 13.2 -21.4 4.5 -4.2 4.5 -4.2 2.2 -8 -3.2 -5.3 -10.4 -12.8 -17.1 -17.9 -3.1 -2.4 -5.9 -4.4 -6.2 -4.4 -0.3 0 -0.6 11.4 -0.6 25.4 0 14 -0.4 25.7 -0.9 26 -1.4 0.9 -2.1 -8.9 -2.1 -32 0 -22.1 0 -22.1 -6.1 -24.9 -7 -3.1 -10 -4 -18.6 -5.9 -6.2 -1.3 -6.2 -1.3 -5.6 8.3 0.8 13.5 -1.4 24.4 -8.4 42.7 -3.7 9.3 -9.9 16.8 -33.1 39.5 -12.6 12.3 -24.5 24.9 -26.5 27.9 -4.9 7.5 -8.6 22 -5.6 22 0.6 0 5.1 -1.8 10 -4z m46.3 -11.1 c2.6 -2 2.6 -2 2.6 -18 0 -16 0 -16 -2.6 -14 -10 7.9 -15.4 26 -9.7 32.3 2.2 2.4 6.4 2.3 9.7 -0.3z m43.2 -20.5 c2.2 -3.3 2.3 -11 0.2 -13.1 -2.1 -2.1 -5.9 -1.1 -9.9 2.5 -3.6 3.2 -3.4 5.2 0.8 10.2 3.1 3.8 6.6 3.9 8.9 0.4z"/>
 </g>
</svg>