<?xml version="1.0" encoding="utf-8"?>
<!-- Generator: Adobe Illustrator 27.9.0, SVG Export Plug-In . SVG Version: 6.00 Build 0)  -->
<svg version="1.1" id="Vrstva_1" xmlns="http://www.w3.org/2000/svg" xmlns:xlink="http://www.w3.org/1999/xlink" x="0px" y="0px"
	 viewBox="0 0 595.28 841.89" style="enable-background:new 0 0 595.28 841.89;" xml:space="preserve">
<style type="text/css">
	.st0{fill-rule:evenodd;clip-rule:evenodd;fill:#FFFFFF;}
	.st1{fill-rule:evenodd;clip-rule:evenodd;fill:#2D2768;}
</style>
<path class="st0" d="M321.55,340.04c19.84,0,35.93,21.47,35.93,47.94c0,26.47-16.09,47.94-35.93,47.94
	c-19.84,0-35.93-21.47-35.93-47.94C285.62,361.51,301.71,340.04,321.55,340.04"/>
<path class="st0" d="M331.06,378.6c0.62-0.61,1.29-1.17,2.13-1.55c1.16-0.79,2.06-0.41,2.51,1.02c0.34,0.97,0.33,1.95-0.03,2.93
	c-0.74,2.24-1.84,2.71-3.29,1.4l-1.23-1.43C330.51,380.06,330.47,379.15,331.06,378.6"/>
<path class="st0" d="M319.57,377.15l0.06,11.98C313.82,395.13,310.53,383.79,319.57,377.15"/>
<path class="st1" d="M350.64,363.09l-0.1,7.74c-3.76,2.71-6.34,4.97-10.57,1.62c-1.63,14.36-6.5,18.99-13,13.88l-0.14,12.69
	c-0.58,6.72-6.22,6.26-6.94,0.31l-0.27-8.5l-6.24,4.78c-3.96,3.42-3.5,9.61-6.99,13.47c-3.19,3.16-6.52,5.58-9.92,7.73
	c-0.61-10.74-1.33-21.48-1.01-32.23c-0.47-10.3,9.87-12.58,16.7-18.87c1.95-1.79,4.88-6.66,4.84-10.03
	c-0.12-8.4-7.17-8.48-8.22-1.34c-0.33,2.23,1.1,6.64,4.11,5.53c-1.5,7.73-11.99,12.16-17.38,2.5c-1.08-1.18-1.85,1.08-1.28,1.95
	c1.66,2.54,3.18,3.71,5.88,4.99c1.07,0.49,1.47,0.54,1.44,0.97c-0.18,2.31-9.69,3.55-12.72,2.69c-1.22,4.69-1.88,9.71-1.88,14.94
	c0,25.31,15.55,45.96,34.61,45.96c0.94,0,1.88-0.05,2.8-0.15c0.83-1.58,1.39-3.91,1.58-7.27c-0.21-3.23,0.13-6.6,2.41-10.86
	c4.93-7.66,13.19-14.26,17.88-22.17c2.72-4.59,4.24-9.61,3.21-15.54c-14.53,29.04-26.21,46.32-49.95,41.77l17.59-15.99
	c4.1,6.94,13.34,4.53,12.42-9.43l20.7-18.86c1.89,9,1.67,23.22-2.88,31.73c-2.78,5.2-10.97,5.22-14.62,9.74
	c-1.59,1.97-2.26,4.57-2,7.16c0.17,1.75,1.21,4.47,3.47,3.54c1.26-0.52,2.34-2.16,2.3-3.87c-0.03-1.33-0.74-2.71-2.56-3.64
	c5.13-8.32,10.91-5.13,15.34-4.6c4.34-7.68,6.92-17.21,6.92-27.52C356.15,378.79,354.12,370.26,350.64,363.09 M325.04,342.2
	c2.21,11.07-2,21.02-8.42,28.02c-13.99,13.46-19.73,17.1-19.14,25.73c3.05-0.86,5.51-2.45,8.25-3.3c1.45-0.29,3.19,1.18,5.79,1.63
	c0.4-3.42-0.6-11.11,0.77-14.34c1.62-3.83,7.64-7.74,12.86-12.06c0.47-0.39,0.64-0.85,0.67-1.44c0.06-1.67,0.09-4.5,0.58-7.11
	c0.74-3.98,2.91-6.65,6.07-5.32c2.67,1.12,2.31,6.33,0.47,8.51c-1.3,1.54-2.54,2.76-3.97,3.65c-1.35,0.85-1.92,1.17-1.66,2.47
	c0.24,1.22,2.27,7.97,3.25,8.22c1.12,0.28,5.31-3.56,8.93-6.73c0.25-0.22,0.4-0.46,0.56-0.74c1.41-2.39,1.78-5.29,3.48-7.63
	c1.21-1.67,2.46-3.09,3.92-4.25c-2.68-4.03-5.89-7.43-9.47-10.02l-0.21,18.6c-0.25,1.39-0.98-2.37-1.01-5.86l0.05-13.54
	C333.21,344.33,329.23,342.77,325.04,342.2z M331.06,378.6c0.62-0.61,1.29-1.17,2.13-1.55c1.16-0.79,2.06-0.41,2.51,1.02
	c0.34,0.97,0.33,1.95-0.03,2.93c-0.74,2.24-1.84,2.71-3.29,1.4l-1.23-1.43C330.51,380.06,330.47,379.15,331.06,378.6z
	 M319.57,377.15l0.06,11.98C313.82,395.13,310.53,383.79,319.57,377.15z M321.68,338.06c20.58,0,37.36,22.4,37.36,49.86
	c0,27.46-16.78,49.86-37.36,49.86c-20.58,0-37.36-22.4-37.36-49.86C284.33,360.46,301.11,338.06,321.68,338.06z"/>
</svg>
